<?xml version="1.0" encoding="UTF-8"?>
<svg width="148px" height="55px" viewBox="0 0 148 55" version="1.1" xmlns="http://www.w3.org/2000/svg" xmlns:xlink="http://www.w3.org/1999/xlink">
    <!-- Generator: Sketch 43 (38999) - http://www.bohemiancoding.com/sketch -->
    <title>Page 1</title>
    <desc>Created with Sketch.</desc>
    <defs>
        <polygon id="path-1" points="0 54.7680752 148.854646 54.7680752 148.854646 0 0 0"></polygon>
    </defs>
    <g id="Page-3" stroke="none" stroke-width="1" fill="none" fill-rule="evenodd">
        <g id="Homepage" transform="translate(-128.000000, -13.000000)">
            <g id="Page-1" transform="translate(128.000000, 13.000000)">
                <path d="M53.2169421,35.6997456 C53.2169421,36.0292588 53.1243336,36.461958 52.9391166,36.9973562 C52.5071868,38.2538385 51.6323891,39.2635509 50.3161819,40.0250332 C49.1020628,40.7249447 47.7858556,41.0756305 46.366345,41.0756305 C43.9592537,41.0756305 42.1488915,40.0868473 40.9352586,38.1095243 C39.9061134,36.4826438 39.39227,34.3919137 39.39227,31.8378208 C39.39227,29.6546128 39.7111737,27.5947898 40.3489812,25.6583518 C41.0687023,23.3928872 42.1386827,21.6418916 43.5581933,20.4060951 C44.60727,19.4791261 45.6665555,19.0155199 46.736779,19.0155199 C48.3203597,19.0155199 49.5033662,19.7779757 50.2853124,21.3019137 C50.9027023,22.4968252 51.2111542,23.9696571 51.2111542,25.7201659 C51.2111542,26.5853208 51.0769812,27.5845686 50.8100938,28.7171792 C50.4598344,30.1999889 50.00773,30.9415155 49.4523222,30.9415155 C49.0201493,30.9415155 48.7116974,30.7151881 48.5264804,30.2618031 C48.6499584,30.1797898 48.8451411,30.0354757 49.1127577,29.8293473 C49.6475049,29.3148783 49.9151215,28.0581527 49.9151215,26.0601438 C49.9151215,24.8447898 49.6883401,23.6810288 49.2362357,22.5686173 C48.6599241,21.1271792 47.8677692,20.4060951 46.8602569,20.4060951 C46.0578931,20.4060951 45.2139649,20.8901438 44.3296876,21.8582412 C43.6712194,22.5793252 43.1053597,23.413573 42.6323515,24.3607412 C41.5832749,26.5441925 41.0584935,29.232135 41.0584935,32.4248119 C41.0584935,34.5464491 41.4289274,36.2353872 42.1695522,37.4916261 C43.0951509,39.0571792 44.5350791,39.8398341 46.489823,39.8398341 C47.5593173,39.8398341 48.5364462,39.5570465 49.4214527,38.9902544 C50.3054869,38.4237058 50.9843728,37.6668473 51.4581101,36.7191925 C51.5400237,36.410365 51.7150318,35.9779093 51.9826485,35.4215819 C52.1472047,35.1541261 52.3528393,35.0200332 52.5997953,35.0200332 C53.0110644,35.0200332 53.2169421,35.2468473 53.2169421,35.6997456 Z" id="Fill-1" fill="#6D6E71"></path>
                <path d="M62.628662,41.2918584 C62.4636196,41.456615 62.1551677,41.539115 61.7028202,41.539115 C61.4762819,41.539115 61.2400209,41.3948009 60.9930649,41.1064159 L60.9930649,36.8738496 C60.9930649,31.6420354 60.1236147,29.0261283 58.3859295,29.0261283 C57.649923,29.0261283 57.0364222,29.4585841 56.5456701,30.3237389 C56.1159279,31.0652655 55.9012998,31.8272345 55.9012998,32.6101327 C55.9012998,32.6923894 55.8755347,32.8213717 55.8242476,32.9961062 C55.7727175,33.1715708 55.7469524,33.3003097 55.7469524,33.382323 L55.7469524,37.3372124 C55.7469524,37.6874115 55.7979964,38.192146 55.9012998,38.8511726 C56.0041171,39.5106858 56.0556473,40.0049558 56.0556473,40.3339823 C56.0556473,40.6632522 55.8086914,40.8284956 55.3150225,40.8284956 C54.9650062,40.8284956 54.6718675,40.6632522 54.4356065,40.3334956 C54.1988594,40.0034956 54.0807289,39.663031 54.0807289,39.3121018 L54.2659458,20.2838053 C54.2243814,20.160177 54.2042069,20.0363053 54.2042069,19.912677 C54.2042069,19.5413053 54.4095984,19.3556195 54.8213537,19.3556195 C55.0267452,19.3556195 55.3305788,19.4950664 55.7316392,19.7742035 C56.1326995,20.0530973 56.3334728,20.2857522 56.3334728,20.4716814 C56.3334728,20.9678982 56.2355168,21.6804646 56.0403341,22.6101106 C55.8446653,23.54 55.7469524,24.2428319 55.7469524,24.7178761 C55.7469524,24.7594912 55.7671269,26.1337611 55.8086914,28.8406858 C56.5697338,28.1609735 57.1560111,27.8209956 57.5677664,27.8209956 C58.2259915,27.8209956 59.0181465,28.017146 59.9439883,28.4082301 C61.7336897,29.1495133 62.628662,31.1066372 62.628662,34.278385 L62.628662,41.2918584 Z" id="Fill-3" fill="#6D6E71"></path>
                <path d="M72.1638113,36.4412478 C72.1638113,35.6174646 71.5257607,35.2054513 70.2506318,35.2054513 C69.2421473,35.2054513 68.3576269,35.3806726 67.5965845,35.7306283 C66.6294214,36.1837699 66.1462044,36.8634823 66.1462044,37.7697655 C66.1462044,38.3258496 66.4033692,38.7583053 66.9176987,39.0673761 C67.3496285,39.3353186 67.8639581,39.4689248 68.4606873,39.4689248 C69.3449646,39.4689248 70.1835454,39.1807832 70.9757003,38.6040133 C71.7673692,38.0274867 72.1638113,37.3064027 72.1638113,36.4412478 L72.1638113,36.4412478 Z M73.7994083,41.3537699 C73.7994083,41.6419115 73.5726269,41.7862257 73.1205225,41.7862257 C72.6266106,41.7862257 72.3281245,41.5800973 72.2255502,41.1683274 C72.2046465,41.1065133 72.1946808,40.7049646 72.1946808,39.9634381 C72.1946808,39.7577965 72.1638113,39.5925531 72.1020723,39.4689248 C70.9496922,40.3138805 69.7051897,40.7356283 68.3680788,40.7356283 C67.442237,40.7356283 66.5475078,40.4779071 65.6834051,39.9634381 C64.6958243,39.3869115 64.2021555,38.6658274 64.2021555,37.8006726 C64.2021555,36.9562035 64.7884328,36.132177 65.9609874,35.3290796 C67.0307248,34.5875531 68.0180625,34.2164248 68.9234866,34.2164248 L71.9785943,34.2164248 C72.1020723,34.0930398 72.1638113,33.8766903 72.1638113,33.5676195 C72.1638113,32.1879956 72.050299,31.1476195 71.8244899,30.4472212 C71.454056,29.2732389 70.7233969,28.6862478 69.633485,28.6862478 C68.8512958,28.6862478 68.1313316,29.1805177 67.4731065,30.1693009 C66.8763773,31.0758274 66.5783773,31.9409823 66.5783773,32.7647655 L66.5783773,32.9499646 L66.5783773,33.1045 C66.5783773,33.2695 66.4959777,33.3515133 66.3314214,33.3515133 C66.1255437,33.3515133 65.8994915,33.227885 65.6525356,32.9808717 C65.4055796,32.7338584 65.2821016,32.5175088 65.2821016,32.3320664 C65.2821016,31.7555398 65.4566237,31.0295885 65.806883,30.1537257 C66.1564132,29.2785929 66.537056,28.6142124 66.9485682,28.1610708 C67.4626546,27.6047434 68.1004622,27.326823 68.8617476,27.326823 C70.0345454,27.326823 71.1147346,27.6974646 72.1020723,28.4389912 C73.151392,29.2423319 73.6858961,30.2106726 73.7067998,31.3435265 L73.7994083,41.3537699 Z" id="Fill-5" fill="#6D6E71"></path>
                <path d="M82.8409374,29.4585841 C82.8409374,29.5410841 82.8302424,29.7165487 82.8100679,29.9837611 C82.5422082,30.3962611 82.2855295,30.6016593 82.0385736,30.6016593 C81.8737742,30.6016593 81.7301217,30.4987168 81.6066437,30.2928319 C81.5449047,28.9952212 81.0096715,28.3464159 80.0016731,28.3464159 C79.3432049,28.3464159 78.6951886,29.5620133 78.0576241,31.9922345 C77.8109113,32.8778319 77.6874333,34.0620354 77.6874333,35.5453319 C77.6874333,37.4403982 77.7387204,38.6039159 77.8417808,39.0363717 C77.8621984,39.0981858 77.9137285,39.2271681 77.9958852,39.4225885 C78.0780418,39.6187389 78.1193631,39.767677 78.1193631,39.8706195 C78.1193631,40.3237611 77.8109113,40.5503319 77.1937644,40.5503319 C76.4942179,40.5503319 76.1444447,40.1903982 76.1444447,39.4690708 C76.1444447,39.3661283 76.1702098,39.2171903 76.22174,39.0210398 C76.272784,38.8253761 76.2987922,38.6764381 76.2987922,38.5730088 C76.2987922,37.4403982 76.247262,35.7409956 76.1444447,33.4750442 C76.0411413,31.2093363 75.9900972,29.510177 75.9900972,28.377323 C75.9900972,27.9655531 76.062045,27.7129425 76.2061837,27.6202212 C76.3498362,27.5275 76.6274186,27.4812611 77.039417,27.4812611 C77.5535034,27.4812611 77.8519896,27.6667035 77.9341462,28.0373451 C77.9545638,28.4496018 77.9752245,28.8511504 77.9958852,29.2422345 C78.5308754,28.4186947 78.8393272,27.9553319 78.9217269,27.8519027 C79.3740744,27.3374336 79.8475687,27.0797124 80.3412375,27.0797124 C80.7114284,27.0797124 81.0818623,27.1931195 81.4522962,27.4194469 C81.6576878,27.5430752 81.9406176,27.8626106 82.3008427,28.377323 C82.6605817,28.8922788 82.8409374,29.2529425 82.8409374,29.4585841" id="Fill-7" fill="#6D6E71"></path>
                <path d="M87.1916887,23.7427699 C87.1916887,24.4431681 86.8625762,24.7931239 86.204108,24.7931239 C85.8132564,24.7931239 85.4530313,24.6495398 85.1241618,24.3606681 C84.7950493,24.0725265 84.630493,23.7427699 84.630493,23.3721283 C84.630493,22.6719735 84.9800232,22.321531 85.6795697,22.321531 C86.0910819,22.321531 86.4459595,22.4556239 86.7442026,22.723323 C87.0424457,22.9912655 87.1916887,23.331 87.1916887,23.7427699 M86.6054114,28.3771283 C86.6054114,28.7480133 86.5179073,29.3040973 86.3431423,30.0456239 C86.1681341,30.7871504 86.0808731,31.3434779 86.0808731,31.7141195 L86.0808731,38.5421504 C86.0808731,38.995292 86.1836904,39.6131903 86.389325,40.3958451 C86.3069253,40.5606018 86.1938992,40.6431018 86.0500036,40.6431018 C85.0417622,40.6431018 84.5378845,40.1595398 84.5378845,39.1909558 L84.5378845,27.8519513 C84.805015,27.7081239 85.0624228,27.6358451 85.3093788,27.6358451 C85.5560917,27.6358451 85.8132564,27.7081239 86.0808731,27.8519513 C86.4304033,27.9965088 86.6054114,28.1714867 86.6054114,28.3771283" id="Fill-9" fill="#6D6E71"></path>
                <path d="M93.9190023,30.7253119 C93.7539599,30.8489403 93.3635945,30.9523695 92.7462046,31.0343827 C92.0673188,31.1166394 91.6762241,31.1886748 91.5736499,31.2504889 C91.5529892,31.4775465 91.5427804,32.6206217 91.5427804,34.6802013 C91.5427804,36.2868827 91.563198,37.3681438 91.6045194,37.9242279 C91.6045194,38.151042 91.6555635,38.511219 91.7586238,39.0054889 C91.8614411,39.5000022 91.9129713,39.8813518 91.9129713,40.1488075 C91.9129713,40.3138075 91.8099109,40.4778341 91.6045194,40.6430774 C91.3986418,40.8078341 91.2134248,40.8903341 91.0488685,40.8903341 C90.6373563,40.8903341 90.3084868,40.4678562 90.0615308,39.6233872 C89.8967315,39.0054889 89.8145749,38.4184978 89.8145749,37.8624137 L89.8145749,31.4361748 C89.6940137,31.3329889 89.233402,31.3329889 88.4312812,31.4361748 C87.7900708,31.5184314 87.4694656,31.2816394 87.4694656,30.7253119 C87.4694656,29.9426571 88.3026989,29.5822367 89.9689223,29.6440509 L90.3699827,24.0518164 C90.3699827,23.9900022 90.3442176,23.8924137 90.2929305,23.7583208 C90.2414003,23.6244712 90.2158783,23.526396 90.2158783,23.4648252 C90.2158783,23.3411969 90.2980349,23.2229226 90.4625912,23.1095155 C90.6271475,22.9965951 90.8225732,22.9501128 91.0488685,22.9703119 C91.7688326,23.0321261 92.1290577,23.3927898 92.1290577,24.0518164 C92.1290577,24.5667721 92.0568669,25.3392058 91.9129713,26.3691173 C91.7688326,27.3992721 91.6968848,28.1609978 91.6968848,28.6552677 C91.6968848,28.9025243 91.7173024,29.1395597 91.7586238,29.3658872 L93.4562029,29.2731659 C94.0317853,29.2731659 94.3200626,29.5002235 94.3200626,29.9528783 C94.3200626,30.282635 94.1861328,30.5398695 93.9190023,30.7253119" id="Fill-11" fill="#6D6E71"></path>
                <path d="M104.534438,28.3463429 C104.362833,29.2531128 104.202166,30.1589093 104.052436,31.0651925 C103.859441,32.0335332 103.762944,32.939573 103.762944,33.784042 L103.762944,43.4545509 C103.762944,44.8344181 103.346327,45.9312544 102.513337,46.7453031 C101.680104,47.5583783 100.563697,47.9655243 99.1648475,47.9655243 C98.403562,47.9655243 97.5499111,47.759396 96.6036517,47.3476261 C95.5130106,46.8942412 94.7624201,46.3279358 94.3509078,45.6482235 C94.2478475,45.462781 94.1968034,45.2773385 94.1968034,45.0921394 C94.1968034,44.4944403 94.4845946,44.1960774 95.0606631,44.1960774 C95.1841411,44.1960774 95.3178279,44.2372058 95.4619666,44.3197058 C95.8114967,44.6903473 96.1610269,45.0507677 96.5110432,45.4009668 C97.2103467,46.0393075 98.0951101,46.3588429 99.1648475,46.3588429 C100.522862,46.3588429 101.4278,45.8847721 101.880634,44.937604 C102.147764,44.3401482 102.281694,43.2586438 102.281694,41.6935774 C102.281694,41.4874491 102.240373,41.0756792 102.158459,40.457781 C102.075816,39.9430686 102.055156,39.4896836 102.09672,39.0983562 C101.520409,39.6342412 101.109139,39.9739757 100.862427,40.1178031 C100.40935,40.4066748 99.9156811,40.5502588 99.3809339,40.5502588 C97.9818409,40.5502588 96.9225555,40.0048827 96.2025914,38.9129137 C95.5647838,37.9655022 95.2458801,36.7606128 95.2458801,35.2980022 C95.2458801,32.5175819 95.2869584,30.1691305 95.3693581,28.2536217 C95.4512716,27.5948385 95.8114967,27.2650819 96.4493042,27.2650819 C97.2310073,27.2650819 97.5807806,27.3991748 97.498624,27.6666305 C97.1075294,28.7379137 96.9123467,31.1377146 96.9123467,34.8655465 C96.9123467,37.749396 97.7305098,39.1910774 99.3670791,39.1910774 C100.369487,39.1910774 101.167232,38.4186438 101.761045,36.8737765 C102.210719,35.6793518 102.425347,34.4744624 102.405172,33.258865 L102.405172,29.7366748 C102.425347,29.3864757 102.451598,28.944042 102.482467,28.4081571 C102.513337,27.8727588 102.847311,27.6257456 103.485361,27.6666305 C104.225743,27.7284447 104.575516,27.9552588 104.534438,28.3463429" id="Fill-13" fill="#6D6E71"></path>
                <path d="M122.802664,26.2145332 C122.802664,28.665927 122.473552,31.3329403 121.815084,34.2165465 C120.889485,38.1921217 119.644496,40.1796659 118.081333,40.1796659 C116.949857,40.1796659 116.116624,39.4279181 115.581877,37.9241792 C115.211686,36.9356394 114.93386,35.4012367 114.748643,33.3204845 C114.542766,31.1168341 114.388418,29.8192235 114.285844,29.4276527 C114.224105,29.6749093 113.81235,31.5288473 113.05155,34.9892235 C112.228283,38.8202412 111.261606,40.73575 110.150547,40.73575 C109.5334,40.73575 108.957332,40.447365 108.422585,39.8705951 C107.59956,38.9854845 106.982413,36.1838916 106.571144,31.4670332 C106.303527,28.2536704 106.169841,24.9994226 106.169841,21.7035597 C106.169841,20.4475642 106.643092,19.818958 107.589351,19.818958 C107.939124,19.818958 108.360846,19.9530509 108.854514,20.22075 L108.854514,21.0547544 C108.546062,21.1165686 108.33508,21.2353296 108.222054,21.4100642 C108.108785,21.5855288 108.03149,21.9199093 107.990655,22.4141792 C107.969994,22.7850642 107.969994,23.2691128 107.990655,23.8663252 L108.021281,25.0403075 C108.021281,27.6153296 108.154968,30.189865 108.422585,32.7646438 C108.813193,36.5545332 109.389262,38.4493562 110.150547,38.4493562 C110.541399,38.4493562 110.993989,37.6669447 111.508562,36.1013916 C111.878996,35.0305951 112.156578,34.0211261 112.341795,33.0737146 C113.08242,29.4894668 113.452611,26.523604 113.452611,24.175396 C113.452611,24.0315686 113.586054,23.8563473 113.853914,23.6499757 C114.120801,23.4445774 114.326679,23.3411482 114.471061,23.3411482 C114.902991,23.3411482 115.319607,23.5010376 115.720668,23.8200863 C116.121971,24.1396217 116.33271,24.5051527 116.353371,24.9166792 C115.982937,25.5146217 115.797963,26.4617898 115.797963,27.7594004 C115.797963,29.7367235 115.931407,31.7656394 116.199023,33.8456615 C116.610292,36.8533827 117.217231,38.3568783 118.019594,38.3568783 C119.130653,38.3568783 120.025382,36.5338473 120.704268,32.8882721 C121.197937,30.2309934 121.444893,27.8934934 121.444893,25.8747987 C121.444893,24.7421881 121.341832,23.8461261 121.136441,23.1866128 C120.971642,22.7541571 120.807085,22.3114801 120.642529,21.8580951 C120.436894,21.3020111 120.334077,20.8695553 120.334077,20.5604845 C120.334077,19.4690022 120.61166,18.922896 121.167067,18.922896 C121.743136,18.922896 122.185518,19.9632721 122.493969,22.0435376 C122.699604,23.4854624 122.802664,24.8757942 122.802664,26.2145332" id="Fill-15" fill="#6D6E71"></path>
                <path d="M127.307933,23.7427699 C127.307933,24.4431681 126.978821,24.7931239 126.320353,24.7931239 C125.929501,24.7931239 125.569276,24.6495398 125.240407,24.3606681 C124.911294,24.0725265 124.746738,23.7427699 124.746738,23.3721283 C124.746738,22.6719735 125.096268,22.321531 125.795814,22.321531 C126.207327,22.321531 126.562204,22.4556239 126.860447,22.723323 C127.15869,22.9912655 127.307933,23.331 127.307933,23.7427699 M126.721656,28.3771283 C126.721656,28.7480133 126.634152,29.3040973 126.459387,30.0456239 C126.284379,30.7871504 126.197118,31.3434779 126.197118,31.7141195 L126.197118,38.5421504 C126.197118,38.995292 126.299935,39.6131903 126.50557,40.3958451 C126.42317,40.5606018 126.310144,40.6431018 126.166248,40.6431018 C125.158007,40.6431018 124.654129,40.1595398 124.654129,39.1909558 L124.654129,27.8519513 C124.92126,27.7081239 125.178668,27.6358451 125.425623,27.6358451 C125.672336,27.6358451 125.929501,27.7081239 126.197118,27.8519513 C126.546648,27.9965088 126.721656,28.1714867 126.721656,28.3771283" id="Fill-17" fill="#6D6E71"></path>
                <path d="M137.337068,38.659792 C137.337068,39.3825796 136.791625,39.9919602 135.70147,40.4872035 C134.796046,40.8790177 133.921735,41.0756549 133.078293,41.0756549 C132.522885,41.0756549 131.885077,40.9403451 131.165113,40.6711858 C130.774262,40.504969 130.146906,40.0695929 129.282803,39.3638407 C128.336544,38.596031 127.863293,38.0664735 127.863293,37.7758982 C127.863293,37.1336637 128.243935,36.8428451 129.005221,36.9046593 L129.190195,36.9046593 C129.231273,37.5291283 129.889498,38.205677 131.165113,38.9335752 C132.31725,39.5996593 133.242849,39.9323363 133.942638,39.9323363 C134.847577,39.9323363 135.30041,39.6230221 135.30041,39.003177 C135.30041,38.6320487 134.745002,38.1158761 133.634187,37.4549027 C132.111373,36.5676018 131.072748,35.8552788 130.517097,35.3184204 C129.385621,34.2242611 128.820004,32.9648584 128.820004,31.5397257 C128.820004,30.4660088 129.097829,29.4441283 129.653237,28.4738407 C130.290802,27.3181106 131.093165,26.7398805 132.060085,26.7398805 C132.759389,26.7398805 133.603317,27.0642832 134.590655,27.7130885 C135.578236,28.3618938 136.153818,29.0160531 136.31886,29.6748363 C136.482931,30.2309204 136.565573,30.8797257 136.565573,31.6214956 C136.565573,32.4248363 136.421192,33.3004558 136.133643,34.2473805 C135.948426,34.3919381 135.73234,34.4639735 135.485627,34.4639735 C135.341245,34.4639735 135.115193,34.4072699 134.806741,34.2938628 C134.498046,34.1809425 134.343942,34.0619381 134.343942,33.9385531 C134.343942,34.0210531 134.456482,33.7947257 134.683263,33.2588407 C134.847577,32.9086416 134.930219,32.2703009 134.930219,31.3435752 C134.930219,29.1394381 134.240638,28.0374912 132.862449,28.0374912 C132.142242,28.0374912 131.566417,28.5225133 131.134244,29.4930442 C130.764053,30.2778894 130.578836,31.072469 130.578836,31.8777566 C130.578836,32.8896593 131.165113,33.8699248 132.337911,34.8197699 C132.728519,35.1502566 133.808466,35.862823 135.578236,36.9567389 C136.75079,37.6795265 137.337068,38.247292 137.337068,38.659792" id="Fill-19" fill="#6D6E71"></path>
                <path d="M147.21166,41.2918584 C147.046617,41.456615 146.738165,41.539115 146.285818,41.539115 C146.05928,41.539115 145.823019,41.3948009 145.576063,41.1064159 L145.576063,36.8738496 C145.576063,31.6420354 144.706612,29.0261283 142.968927,29.0261283 C142.232921,29.0261283 141.61942,29.4585841 141.128668,30.3237389 C140.698926,31.0652655 140.484298,31.8272345 140.484298,32.6101327 C140.484298,32.6923894 140.458532,32.8213717 140.407245,32.9961062 C140.355715,33.1715708 140.32995,33.3003097 140.32995,33.382323 L140.32995,37.3372124 C140.32995,37.6874115 140.380994,38.192146 140.484298,38.8511726 C140.587115,39.5106858 140.638645,40.0049558 140.638645,40.3339823 C140.638645,40.6632522 140.391689,40.8284956 139.89802,40.8284956 C139.548004,40.8284956 139.254865,40.6632522 139.018604,40.3334956 C138.781857,40.0034956 138.663727,39.663031 138.663727,39.3121018 L138.848944,20.2838053 C138.807379,20.160177 138.787205,20.0363053 138.787205,19.912677 C138.787205,19.5413053 138.992596,19.3556195 139.404351,19.3556195 C139.609743,19.3556195 139.913577,19.4950664 140.314637,19.7742035 C140.715697,20.0530973 140.91647,20.2857522 140.91647,20.4716814 C140.91647,20.9678982 140.818515,21.6804646 140.623332,22.6101106 C140.427663,23.54 140.32995,24.2428319 140.32995,24.7178761 C140.32995,24.7594912 140.350125,26.1337611 140.391689,28.8406858 C141.152731,28.1609735 141.739009,27.8209956 142.150764,27.8209956 C142.808989,27.8209956 143.601144,28.017146 144.526986,28.4082301 C146.316687,29.1495133 147.21166,31.1066372 147.21166,34.278385 L147.21166,41.2918584 Z" id="Fill-21" fill="#6D6E71"></path>
                <path d="M7.29295449,36.0260465 C6.375377,37.3956925 5.52123997,38.7979491 4.82558254,40.2642102 C4.14086313,41.7241438 3.59104584,43.270958 3.551669,44.8092544 C3.53343899,45.5741438 3.66056297,46.3251615 3.9612367,47.0051173 C4.25972284,47.6858031 4.72957113,48.2905597 5.30393817,48.8030819 C6.46166574,49.8308031 7.96017308,50.5097854 9.48979299,51.0354491 C11.0293786,51.5586792 12.6353215,51.9271305 14.254147,52.2274403 C15.874917,52.5248296 17.5136739,52.7489668 19.1585075,52.9324624 C22.4496331,53.2967765 25.7648223,53.5033916 29.0824423,53.6503827 C35.7201127,53.9343872 42.3738256,53.9791659 49.0260801,53.9781925 C55.6790638,53.9708916 62.3337489,53.9010465 68.9884341,53.8221969 C82.2980475,53.6584137 95.6088762,53.4620199 108.920191,53.3478827 C122.231506,53.2296084 135.54355,53.1833695 148.854622,53.234719 C135.54355,53.2848518 122.232964,53.4323296 108.92408,53.6520863 C95.6149529,53.8677058 82.3075271,54.1653385 68.9981568,54.430604 C62.3432285,54.5603164 55.6878142,54.680781 49.0297261,54.7387013 C42.371638,54.7902942 35.71039,54.7966217 29.0459822,54.5622633 C25.7142644,54.4400951 22.3808452,54.2580597 19.0532595,53.9156482 C17.3897098,53.7428606 15.7276184,53.528458 14.072576,53.2378827 C12.4185059,52.9436571 10.7680817,52.580073 9.15095775,52.0444314 C8.34300343,51.7755155 7.54355644,51.4625509 6.76938842,51.0741438 C5.99692186,50.6845199 5.24487292,50.2199403 4.57279299,49.6278385 C3.90192838,49.0391438 3.31589413,48.3073518 2.93792512,47.4621527 C2.55631011,46.6189004 2.39685824,45.6885243 2.41265759,44.7900288 C2.42529706,43.8881261 2.59422855,43.0137235 2.83656623,42.1780155 C3.07987618,41.3415774 3.4004814,40.540427 3.75924812,39.7640996 C4.48067064,38.2138783 5.35522529,36.7578385 6.27936558,35.354365 L7.29295449,36.0260465 Z" id="Fill-23" fill="#00B7D1"></path>
                <polygon id="Fill-25" fill="#9DD3E0" points="22.2553254 12.5766991 22.0555245 12.4382257 29.0120987 2.38661062 29.2118997 2.52508407"></polygon>
                <polygon id="Fill-27" fill="#9DD3E0" points="16.4609026 19.2100155 14.4218145 11.5912987 14.6568602 11.5285111 16.6959483 19.1469845"></polygon>
                <polygon id="Fill-29" fill="#9DD3E0" points="15.3642577 19.6992235 9.25720228 9.10855973 9.46745514 8.98687832 15.5745106 19.577542"></polygon>
                <polygon id="Fill-31" fill="#9DD3E0" points="14.4311483 20.4561792 8.86102757 14.8787898 9.03287586 14.7067323 14.6029966 20.2841217"></polygon>
                <polygon id="Fill-33" fill="#9DD3E0" points="13.7256953 21.4288031 3.1479106 15.3143119 3.26944405 15.1035597 13.8472287 21.2180509"></polygon>
                <polygon id="Fill-35" fill="#9DD3E0" points="13.2958072 22.5514845 5.68611223 20.5096704 5.74930962 20.2748252 13.3590046 22.316396"></polygon>
                <mask id="mask-2" fill="white">
                    <use xlink:href="#path-1"></use>
                </mask>
                <g id="Clip-38"></g>
                <polygon id="Fill-37" fill="#9DD3E0" mask="url(#mask-2)" points="0.956711256 23.7991945 13.1708222 23.7991945 13.1708222 23.5034956 0.956711256 23.5034956"></polygon>
                <polygon id="Fill-39" fill="#9DD3E0" mask="url(#mask-2)" points="5.74933393 26.9755288 5.68613654 26.7404403 13.2958315 24.6991128 13.3590289 24.9342013"></polygon>
                <polygon id="Fill-40" fill="#9DD3E0" mask="url(#mask-2)" points="3.26954127 32.1465022 3.14800783 31.9359934 13.7257925 25.8215022 13.8473259 26.0322544"></polygon>
                <polygon id="Fill-41" fill="#9DD3E0" mask="url(#mask-2)" points="9.03287586 32.5436217 8.86102757 32.3715642 14.4316344 26.7941748 14.6034827 26.9664757"></polygon>
                <polygon id="Fill-42" fill="#9DD3E0" mask="url(#mask-2)" points="9.46750375 38.263135 9.2572509 38.1414535 15.3643064 27.5510332 15.5745592 27.6727146"></polygon>
                <polygon id="Fill-43" fill="#9DD3E0" mask="url(#mask-2)" points="14.6568845 35.7218429 14.4218388 35.6585686 16.4614131 28.0403385 16.6964587 28.1031261"></polygon>
                <polygon id="Fill-44" fill="#9DD3E0" mask="url(#mask-2)" points="17.6471419 40.4576106 17.9427768 40.4576106 17.9427768 28.2286283 17.6471419 28.2286283"></polygon>
                <polygon id="Fill-45" fill="#9DD3E0" mask="url(#mask-2)" points="20.8797856 35.7215996 18.8411837 28.1028827 19.0762294 28.0400951 21.1148313 35.6588119"></polygon>
                <polygon id="Fill-46" fill="#9DD3E0" mask="url(#mask-2)" points="26.0691664 38.263135 19.9621109 27.6727146 20.1723638 27.5510332 26.2794192 38.1414535"></polygon>
                <polygon id="Fill-47" fill="#9DD3E0" mask="url(#mask-2)" points="26.5042561 32.5436217 20.9341354 26.9659889 21.1059837 26.7939314 26.6761044 32.3715642"></polygon>
                <polygon id="Fill-48" fill="#9DD3E0" mask="url(#mask-2)" points="32.2671289 32.1465022 21.6893442 26.0322544 21.8108777 25.8215022 32.3886623 31.9359934"></polygon>
                <polygon id="Fill-49" fill="#9DD3E0" mask="url(#mask-2)" points="29.7873362 26.9755288 22.1781274 24.9337146 22.2413248 24.6988695 29.8505336 26.7404403"></polygon>
                <polygon id="Fill-50" fill="#9DD3E0" mask="url(#mask-2)" points="22.3665285 23.7991945 34.5806395 23.7991945 34.5806395 23.5034956 22.3665285 23.5034956"></polygon>
                <polygon id="Fill-51" fill="#9DD3E0" mask="url(#mask-2)" points="22.241106 22.5507788 22.1783948 22.3156903 29.7876036 20.2746062 29.8503148 20.5096947"></polygon>
                <polygon id="Fill-52" fill="#9DD3E0" mask="url(#mask-2)" points="21.8109749 21.4288031 21.6894414 21.2180509 32.2672261 15.1035597 32.3887595 15.3143119"></polygon>
                <polygon id="Fill-53" fill="#9DD3E0" mask="url(#mask-2)" points="21.1055219 20.4556925 20.9336736 20.283635 26.5042804 14.7067323 26.6761287 14.8787898"></polygon>
                <polygon id="Fill-54" fill="#9DD3E0" mask="url(#mask-2)" points="27.5114281 8.41709292 27.471079 8.17713717 32.6539941 7.30176106 32.6943432 7.54171681"></polygon>
                <polygon id="Fill-55" fill="#9DD3E0" mask="url(#mask-2)" points="21.2453339 8.1512677 19.3020142 0.508701327 19.537546 0.448590708 21.4808657 8.09115708"></polygon>
                <path d="M20.766079,23.6251283 C20.766079,25.2829159 19.4238636,26.6267655 17.768092,26.6267655 C16.1125635,26.6267655 14.7705912,25.2829159 14.7705912,23.6251283 C14.7705912,21.9673407 16.1125635,20.6234912 17.768092,20.6234912 C19.4238636,20.6234912 20.766079,21.9673407 20.766079,23.6251283" id="Fill-56" fill="#00B7D1" mask="url(#mask-2)"></path>
                <path d="M33.2840235,32.0412235 C33.2840235,32.5698075 32.8557396,32.9986128 32.3277984,32.9986128 C31.8001002,32.9986128 31.3723024,32.5698075 31.3723024,32.0412235 C31.3723024,31.5126394 31.8001002,31.0843208 32.3277984,31.0843208 C32.8557396,31.0843208 33.2840235,31.5126394 33.2840235,32.0412235" id="Fill-57" fill="#9DD3E0" mask="url(#mask-2)"></path>
                <path d="M30.2969502,26.8579845 C30.2969502,27.1222765 30.0828083,27.3364358 29.8188377,27.3364358 C29.554867,27.3364358 29.3409682,27.1222765 29.3409682,26.8579845 C29.3409682,26.5936925 29.554867,26.3795332 29.8188377,26.3795332 C30.0828083,26.3795332 30.2969502,26.5936925 30.2969502,26.8579845" id="Fill-58" fill="#9DD3E0" mask="url(#mask-2)"></path>
                <path d="M35.4080148,23.1464823 C35.6719855,23.6042478 35.5152073,24.1895354 35.0582416,24.4538274 C34.6010328,24.7181195 34.0164569,24.5611504 33.7524863,24.1036283 C33.4887587,23.6458628 33.6452938,23.0603319 34.1025026,22.7962832 C34.5597114,22.5319912 35.1440442,22.6887168 35.4080148,23.1464823" id="Fill-59" fill="#9DD3E0" mask="url(#mask-2)"></path>
                <path d="M30.2328778,20.1529248 C30.3648631,20.3816858 30.2865956,20.6744513 30.0581127,20.8065973 C29.8293868,20.9387434 29.5369773,20.8601372 29.404992,20.6313761 C29.2730067,20.4023717 29.3512742,20.1098496 29.5800002,19.9777035 C29.808483,19.8455575 30.1008925,19.9241637 30.2328778,20.1529248" id="Fill-60" fill="#9DD3E0" mask="url(#mask-2)"></path>
                <path d="M32.8059595,14.3799447 C33.2631684,14.6442367 33.4197034,15.2295243 33.1557328,15.6872898 C32.8920052,16.1450553 32.3074294,16.301781 31.8502206,16.0377323 C31.3930117,15.7734403 31.2364767,15.1876659 31.5004473,14.7299004 C31.7644179,14.2723783 32.3487507,14.1156527 32.8059595,14.3799447" id="Fill-61" fill="#9DD3E0" mask="url(#mask-2)"></path>
                <path d="M26.8289935,14.3782898 C27.0577194,14.5104358 27.13623,14.802958 27.0042447,15.0319624 C26.8722594,15.2607235 26.5798499,15.3390863 26.3508809,15.2069403 C26.1226411,15.0747942 26.0441305,14.7822721 26.1761158,14.5535111 C26.3081011,14.3245066 26.6007537,14.2461438 26.8289935,14.3782898" id="Fill-62" fill="#9DD3E0" mask="url(#mask-2)"></path>
                <path d="M33.0428525,7.11709735 C33.2108117,7.32079204 33.1821299,7.62231858 32.9786829,7.79072566 C32.7749928,7.95888938 32.474076,7.93041593 32.3061168,7.72672124 C32.1379145,7.52302655 32.1665964,7.22125664 32.3698003,7.05260619 C32.5732473,6.88444248 32.8746502,6.91340265 33.0428525,7.11709735" id="Fill-63" fill="#9DD3E0" mask="url(#mask-2)"></path>
                <path d="M29.6565419,1.66922566 C30.0904163,1.97026549 30.1985811,2.56650442 29.8981504,3.00090708 C29.5974767,3.43530973 29.0014767,3.54384956 28.5676023,3.24280973 C28.1334848,2.94176991 28.0255631,2.34504425 28.3262369,1.91064159 C28.6271537,1.47623894 29.2226675,1.3684292 29.6565419,1.66922566" id="Fill-64" fill="#9DD3E0" mask="url(#mask-2)"></path>
                <path d="M19.0088269,0.234236726 C19.143729,0.00693584071 19.4368677,-0.0677765487 19.6636491,0.0670464602 C19.8906736,0.202112832 19.9655382,0.495608407 19.8306361,0.722909292 C19.6957339,0.949966814 19.4023522,1.0246792 19.1755708,0.889612832 C18.9485463,0.754789823 18.8739248,0.461537611 19.0088269,0.234236726" id="Fill-65" fill="#9DD3E0" mask="url(#mask-2)"></path>
                <path d="M14.300354,11.1451659 C14.5288369,11.0130199 14.8212463,11.0913827 14.9532316,11.3203872 C15.085217,11.5491482 15.0069494,11.8419137 14.7784666,11.9740597 C14.5497406,12.1062058 14.2573312,12.0278429 14.1253458,11.7990819 C13.9933605,11.5700774 14.0718711,11.2773119 14.300354,11.1451659" id="Fill-66" fill="#9DD3E0" mask="url(#mask-2)"></path>
                <path d="M8.53439429,8.56895133 C8.79836493,8.11118584 9.38318385,7.95470354 9.84039266,8.21899558 C10.2976015,8.48304425 10.4541365,9.06857522 10.190409,9.52634071 C9.92643834,9.98386283 9.34089021,10.1408319 8.88392447,9.87653982 C8.42671566,9.61224779 8.27042365,9.02671681 8.53439429,8.56895133" id="Fill-67" fill="#9DD3E0" mask="url(#mask-2)"></path>
                <path d="M8.53249837,14.5531947 C8.66448369,14.3244336 8.95689315,14.2460708 9.18537602,14.3782168 C9.41410196,14.5103628 9.49236949,14.802885 9.36062724,15.0318894 C9.22864192,15.2606504 8.93623246,15.3390133 8.70774959,15.2071106 C8.47902365,15.0749646 8.40051305,14.7819558 8.53249837,14.5531947" id="Fill-68" fill="#9DD3E0" mask="url(#mask-2)"></path>
                <path d="M2.25264666,15.2086681 C2.25264666,14.6800841 2.68093051,14.2517655 3.20887178,14.2517655 C3.73656998,14.2517655 4.1643677,14.6800841 4.1643677,15.2086681 C4.1643677,15.7372522 3.73632692,16.1660575 3.20838564,16.1660575 C2.68044437,16.1660575 2.25264666,15.7372522 2.25264666,15.2086681" id="Fill-69" fill="#9DD3E0" mask="url(#mask-2)"></path>
                <path d="M5.2396956,20.3920044 C5.2396956,20.1277124 5.45359445,19.9137965 5.71756509,19.9137965 C5.98153573,19.9137965 6.19567765,20.1277124 6.19592072,20.3920044 C6.19592072,20.6562965 5.98177879,20.8706991 5.71780816,20.8706991 C5.45383752,20.8706991 5.2396956,20.6562965 5.2396956,20.3920044" id="Fill-70" fill="#9DD3E0" mask="url(#mask-2)"></path>
                <path d="M0.128169168,24.1032876 C-0.135801468,23.6455221 0.0214628059,23.0604779 0.478428548,22.7961858 C0.935637357,22.5318938 1.52021321,22.6886195 1.78418385,23.146385 C2.04791142,23.6041504 1.89089021,24.1896814 1.4336814,24.4539735 C0.976472594,24.7182655 0.392139804,24.5610531 0.128169168,24.1032876" id="Fill-71" fill="#9DD3E0" mask="url(#mask-2)"></path>
                <path d="M5.30333051,27.0970885 C5.17134519,26.8683274 5.24985579,26.5755619 5.47858173,26.4434159 C5.7070646,26.3112699 5.999231,26.3896327 6.13121631,26.6183938 C6.26320163,26.8473982 6.18542023,27.1401637 5.95669429,27.2723097 C5.72821142,27.4044558 5.43531582,27.3258496 5.30333051,27.0970885" id="Fill-72" fill="#9DD3E0" mask="url(#mask-2)"></path>
                <path d="M2.73022447,32.8701659 C2.27301566,32.6058739 2.11745285,32.0203429 2.38069429,31.5625774 C2.64466493,31.1048119 3.22972692,30.9480863 3.68693573,31.212135 C4.14390147,31.476427 4.30019347,32.0626881 4.03622284,32.5202102 C3.7722522,32.9779757 3.18743328,33.134458 2.73022447,32.8701659" id="Fill-73" fill="#9DD3E0" mask="url(#mask-2)"></path>
                <path d="M8.70743361,32.8720642 C8.47895073,32.7399181 8.40044013,32.4471527 8.53242545,32.2183916 C8.66441077,31.9893872 8.95682023,31.9110243 9.1853031,32.0431704 C9.41402904,32.1753164 9.49253964,32.4675951 9.36079739,32.6965996 C9.22881207,32.9253606 8.93591648,33.0042102 8.70743361,32.8720642" id="Fill-74" fill="#9DD3E0" mask="url(#mask-2)"></path>
                <path d="M9.36186688,39.1595863 C8.83392561,39.1595863 8.40661403,38.7302942 8.4061279,38.2021969 C8.4061279,37.6738562 8.83441175,37.2455376 9.36235302,37.2455376 C9.89029429,37.2455376 10.318092,37.6740996 10.318092,38.2026836 C10.318092,38.7312677 9.88980816,39.1595863 9.36186688,39.1595863" id="Fill-75" fill="#9DD3E0" mask="url(#mask-2)"></path>
                <path d="M14.539386,36.1688761 C14.2754153,36.1688761 14.0612734,35.9549602 14.0612734,35.6906681 C14.0612734,35.4263761 14.2754153,35.2119735 14.539386,35.2119735 C14.8033566,35.2119735 15.0174985,35.4258894 15.0174985,35.6901814 C15.0174985,35.9544735 14.8033566,36.1688761 14.539386,36.1688761" id="Fill-76" fill="#9DD3E0" mask="url(#mask-2)"></path>
                <path d="M18.246156,41.2866261 C17.7889471,41.5509181 17.2041282,41.3934624 16.9401576,40.9359403 C16.6761869,40.4781748 16.8332082,39.8928872 17.290417,39.6285951 C17.7476258,39.3645465 18.3322016,39.5217588 18.5959292,39.9795243 C18.8598998,40.4372898 18.7033648,41.0223341 18.246156,41.2866261" id="Fill-77" fill="#9DD3E0" mask="url(#mask-2)"></path>
                <path d="M21.2360731,36.1051881 C21.0075902,36.2373341 20.7151808,36.1589712 20.5831954,35.9297235 C20.4512101,35.7012058 20.5297207,35.4084403 20.7579605,35.2762942 C20.9869295,35.1441482 21.2790959,35.2220243 21.4110812,35.4510288 C21.5430666,35.6797898 21.464556,35.973042 21.2360731,36.1051881" id="Fill-78" fill="#9DD3E0" mask="url(#mask-2)"></path>
                <path d="M27.0017897,38.6814027 C26.7378191,39.1391681 26.1530002,39.2954071 25.6957914,39.0313584 C25.2385825,38.7670664 25.0827767,38.181292 25.3467473,37.7235265 C25.6107179,37.2660044 26.1952938,37.1095221 26.6522595,37.3738142 C27.1094684,37.6381062 27.2657604,38.2236372 27.0017897,38.6814027" id="Fill-79" fill="#9DD3E0" mask="url(#mask-2)"></path>
                <path d="M27.0036856,32.6971593 C26.8717003,32.925677 26.579777,33.0042832 26.350808,32.8721372 C26.1225682,32.7399912 26.0438145,32.4472257 26.1757998,32.2184646 C26.3077852,31.9894602 26.6001946,31.9110973 26.8284344,32.043 C27.0574034,32.175146 27.135671,32.4681549 27.0036856,32.6971593" id="Fill-80" fill="#9DD3E0" mask="url(#mask-2)"></path>
            </g>
        </g>
    </g>
</svg>