<?xml version="1.0" encoding="UTF-8"?>
<svg width="30px" height="30px" viewBox="0 0 30 30" version="1.1" xmlns="http://www.w3.org/2000/svg" xmlns:xlink="http://www.w3.org/1999/xlink">
    <!-- Generator: Sketch 43 (38999) - http://www.bohemiancoding.com/sketch -->
    <title>post-facebook copy 2</title>
    <desc>Created with Sketch.</desc>
    <defs></defs>
    <g id="Page-3" stroke="none" stroke-width="1" fill="none" fill-rule="evenodd" fill-opacity="0.8">
        <g id="Homepage" transform="translate(-738.000000, -966.000000)" fill="#FFFFFF">
            <g id="post-facebook-copy-2" transform="translate(738.000000, 966.000000)">
                <path d="M27,0 L3,0 C1.35,0 0,1.35 0,3 L0,27 C0,28.65 1.35,30 3,30 L27,30 C28.65,30 30,28.65 30,27 L30,3 C30,1.35 28.65,0 27,0 L27,0 Z M25.5,3 L25.5,7.5 L22.5,7.5 C21.6,7.5 21,8.1 21,9 L21,12 L25.5,12 L25.5,16.5 L21,16.5 L21,27 L16.5,27 L16.5,16.5 L13.5,16.5 L13.5,12 L16.5,12 L16.5,8.25 C16.5,5.4 18.9,3 21.75,3 L25.5,3 L25.5,3 Z" id="Shape"></path>
            </g>
        </g>
    </g>
</svg>